<?xml version="1.0" encoding="UTF-8" standalone="no"?>
<!DOCTYPE svg PUBLIC "-//W3C//DTD SVG 1.1//EN" "http://www.w3.org/Graphics/SVG/1.1/DTD/svg11.dtd">
<svg width="100%" height="100%" viewBox="0 0 512 512" version="1.1" xmlns="http://www.w3.org/2000/svg" xmlns:xlink="http://www.w3.org/1999/xlink" xml:space="preserve" xmlns:serif="http://www.serif.com/" style="fill-rule:evenodd;clip-rule:evenodd;stroke-linejoin:round;stroke-miterlimit:2;">
    <g>
        <g transform="matrix(1.38022,0,0,1.38022,-170.769,-71.9066)">
            <circle cx="405.369" cy="139.426" r="21.203" style="fill:rgb(243,247,248);"/>
        </g>
        <g transform="matrix(1.24017,0,0,1.21739,-61.4759,-55.6954)">
            <path d="M49.754,256C50.101,65.711 87.949,46.432 256,48.765C431.225,47.563 459.392,73.653 459.998,256.195C460.665,456.997 418.386,464.695 256,463.856C76.957,463.478 54.075,439.881 49.754,256ZM89.689,256.035C91.023,424.933 91.197,425.414 255.994,426.773C420.79,424.056 421.06,421.537 422.393,256.035C422.393,93.249 418.789,85.377 255.994,85.807C92.531,84.448 88.356,85.778 89.689,256.035Z" style="fill:rgb(243,247,248);"/>
        </g>
        <g transform="matrix(1.72099,0,0,1.72099,-181.027,-276.092)">
            <path d="M253.578,233.985C294.879,233.985 328.41,267.516 328.41,308.817C328.41,350.118 294.879,383.649 253.578,383.649C212.277,383.649 178.746,350.118 178.746,308.817C178.746,267.516 212.277,233.985 253.578,233.985ZM253.939,258.969C226.228,258.969 203.73,281.466 203.73,309.177C203.73,336.888 226.228,359.386 253.939,359.386C281.649,359.386 304.147,336.888 304.147,309.177C304.147,281.466 281.649,258.969 253.939,258.969Z" style="fill:rgb(243,247,248);"/>
        </g>
    </g>
</svg>
