<?xml version="1.0" encoding="UTF-8" standalone="no"?>
<!DOCTYPE svg PUBLIC "-//W3C//DTD SVG 1.1//EN" "http://www.w3.org/Graphics/SVG/1.1/DTD/svg11.dtd">
<svg width="100%" height="100%" viewBox="0 0 222 313" version="1.1" xmlns="http://www.w3.org/2000/svg" xmlns:xlink="http://www.w3.org/1999/xlink" xml:space="preserve" xmlns:serif="http://www.serif.com/" style="fill-rule:evenodd;clip-rule:evenodd;stroke-linejoin:round;stroke-miterlimit:2;">
    <g id="Calque-1" serif:id="Calque 1">
        <g id="g3013">
            <path id="polygon2989" d="M221.395,61.414L201.225,287.365L110.562,312.5L20.148,287.401L0,61.414L221.395,61.414Z" style="fill:rgb(38,77,228);fill-rule:nonzero;"/>
            <path id="polygon2991" d="M183.958,272.977L201.195,79.891L110.698,79.891L110.698,293.288L183.958,272.977Z" style="fill:rgb(41,101,241);fill-rule:nonzero;"/>
            <path id="polygon2993" d="M46.19,163.707L48.674,191.423L110.698,191.423L110.698,163.707L46.19,163.707Z" style="fill:rgb(235,235,235);fill-rule:nonzero;"/>
            <path id="polygon2995" d="M110.698,107.608L41.198,107.608L43.718,135.325L110.698,135.325L110.698,107.608Z" style="fill:rgb(235,235,235);fill-rule:nonzero;"/>
            <path id="polygon2997" d="M110.698,264.526L110.698,235.689L110.576,235.722L79.708,227.386L77.735,205.281L49.912,205.281L53.795,248.8L110.57,264.561L110.698,264.526Z" style="fill:rgb(235,235,235);fill-rule:nonzero;"/>
            <path id="path2999" d="M52.104,0L85.674,0L85.674,14.038L66.142,14.038L66.142,28.076L85.674,28.076L85.674,42.114L52.104,42.114L52.104,0Z" style="fill:white;fill-rule:nonzero;"/>
            <path id="path3001" d="M92.387,0L125.957,0L125.957,12.207L106.425,12.207L106.425,14.648L125.957,14.648L125.957,42.725L92.387,42.725L92.387,29.907L111.919,29.907L111.919,27.466L92.387,27.466L92.387,0Z" style="fill:white;fill-rule:nonzero;"/>
            <path id="path3003" d="M132.671,0L166.24,0L166.24,12.207L146.709,12.207L146.709,14.648L166.24,14.648L166.24,42.725L132.671,42.725L132.671,29.907L152.202,29.907L152.202,27.466L132.671,27.466L132.671,0Z" style="fill:white;fill-rule:nonzero;"/>
            <path id="polygon3005" d="M144.731,191.423L141.515,227.369L110.602,235.712L110.602,264.548L167.422,248.8L167.839,244.118L174.352,171.149L175.028,163.707L180.032,107.608L110.602,107.608L110.602,135.325L149.657,135.325L147.135,163.707L110.602,163.707L110.602,191.423L144.731,191.423Z" style="fill:white;fill-rule:nonzero;"/>
        </g>
    </g>
</svg>
