<?xml version="1.0" encoding="UTF-8" standalone="no"?>
<!DOCTYPE svg PUBLIC "-//W3C//DTD SVG 1.1//EN" "http://www.w3.org/Graphics/SVG/1.1/DTD/svg11.dtd">
<svg width="100%" height="100%" viewBox="0 0 720 1080" version="1.1" xmlns="http://www.w3.org/2000/svg" xmlns:xlink="http://www.w3.org/1999/xlink" xml:space="preserve" xmlns:serif="http://www.serif.com/" style="fill-rule:evenodd;clip-rule:evenodd;stroke-linejoin:round;stroke-miterlimit:2;">
    <g transform="matrix(1.56327,0,0,1.56327,-353.836,-387.372)">
        <circle cx="571.775" cy="593.227" r="115.144" style="fill:rgb(26,188,254);"/>
    </g>
    <g transform="matrix(1.56327,0,0,1.56327,-353.836,-747.372)">
        <path d="M456.631,708.37L456.631,478.083L571.775,478.083C635.324,478.083 686.918,529.677 686.918,593.227C686.918,656.776 635.324,708.37 571.775,708.37L456.631,708.37Z" style="fill:rgb(255,114,98);"/>
    </g>
    <g transform="matrix(-1.56327,0,0,1.56327,1073.84,-747.372)">
        <path d="M456.631,708.37L456.631,478.083L571.775,478.083C635.324,478.083 686.918,529.677 686.918,593.227C686.918,656.776 635.324,708.37 571.775,708.37L456.631,708.37Z" style="fill:rgb(242,78,30);"/>
    </g>
    <g transform="matrix(-1.56327,0,0,1.56327,1073.84,-387.372)">
        <path d="M456.631,708.37L456.631,478.083L571.775,478.083C635.324,478.083 686.918,529.677 686.918,593.227C686.918,656.776 635.324,708.37 571.775,708.37L456.631,708.37Z" style="fill:rgb(162,89,255);"/>
    </g>
    <g transform="matrix(1.56327,0,0,1.56327,-714.162,-27.3717)">
        <path d="M686.918,593.227C686.918,656.776 635.324,708.37 571.775,708.37C508.225,708.37 456.631,656.776 456.631,593.227C456.631,529.677 508.225,478.083 571.775,478.083C571.844,478.083 571.914,478.083 571.983,478.083L687.126,478.083L687.126,593.227L686.918,593.227Z" style="fill:rgb(10,207,131);"/>
    </g>
</svg>
