<?xml version="1.0" encoding="UTF-8" standalone="no"?>
<!DOCTYPE svg PUBLIC "-//W3C//DTD SVG 1.1//EN" "http://www.w3.org/Graphics/SVG/1.1/DTD/svg11.dtd">
<svg width="100%" height="100%" viewBox="0 0 1600 1080" version="1.1" xmlns="http://www.w3.org/2000/svg" xmlns:xlink="http://www.w3.org/1999/xlink" xml:space="preserve" xmlns:serif="http://www.serif.com/" style="fill-rule:evenodd;clip-rule:evenodd;stroke-linejoin:round;stroke-miterlimit:2;">
    <g id="logo-mysql.svg" transform="matrix(2.67405,0,0,2.67405,800,514)">
        <g transform="matrix(1,0,0,1,-400,-400)">
            <rect x="0" y="122.751" width="800" height="554.494" style="fill:none;fill-rule:nonzero;"/>
            <path d="M244.883,570.577L223.225,570.577C222.459,534.02 220.349,499.651 216.901,467.446L216.708,467.446L183.733,570.577L167.244,570.577L134.465,467.446L134.277,467.446C131.846,498.366 130.314,532.743 129.678,570.577L109.936,570.577C111.208,524.57 114.406,481.437 119.516,441.176L146.36,441.176L177.602,536.259L177.795,536.259L209.229,441.176L234.914,441.176C240.539,488.334 243.862,531.471 244.883,570.577M338.811,475.105C329.993,522.958 318.358,557.729 303.919,579.433C292.669,596.14 280.344,604.502 266.922,604.502C263.344,604.502 258.928,603.422 253.697,601.28L253.697,589.741C256.254,590.109 259.255,590.319 262.703,590.319C268.973,590.319 274.012,588.594 277.854,585.137C282.449,580.927 284.747,576.194 284.747,570.958C284.747,567.367 282.955,560.026 279.381,548.911L255.614,475.101L276.891,475.101L293.95,530.303C297.783,542.838 299.382,551.589 298.742,556.574C308.071,531.659 314.587,504.493 318.299,475.097L338.811,475.097L338.811,475.105Z" style="fill:rgb(93,135,161);fill-rule:nonzero;"/>
            <path d="M627.106,570.577L565.584,570.577L565.584,441.176L586.28,441.176L586.28,554.648L627.106,554.648L627.106,570.577ZM549.48,573.704L525.691,561.964C527.801,560.231 529.818,558.356 531.634,556.184C541.746,544.307 546.789,526.742 546.789,503.476C546.789,460.666 529.989,439.251 496.378,439.251C479.897,439.251 467.04,444.683 457.845,455.552C447.742,467.438 442.699,484.94 442.699,508.08C442.699,530.826 447.169,547.513 456.113,558.097C464.295,567.685 476.628,572.486 493.122,572.486C499.274,572.486 504.92,571.732 510.064,570.213L541.034,588.243L549.48,573.704ZM472.418,544.684C467.178,536.255 464.558,522.72 464.558,504.058C464.558,471.476 474.456,455.167 494.273,455.167C504.631,455.167 512.223,459.067 517.078,466.852C522.31,475.293 524.942,488.707 524.942,507.109C524.942,539.958 515.036,556.385 495.232,556.385C484.869,556.389 477.277,552.501 472.418,544.684M433.68,534.71C433.68,545.684 429.654,554.686 421.61,561.738C413.558,568.761 402.76,572.281 389.229,572.281C376.573,572.281 364.303,568.238 352.425,560.194L357.987,549.082C368.207,554.201 377.461,556.745 385.768,556.745C393.565,556.745 399.659,555.017 404.078,551.589C408.494,548.149 411.126,543.323 411.126,537.221C411.126,529.533 405.765,522.962 395.93,517.459C386.861,512.479 368.722,502.066 368.722,502.066C358.891,494.901 353.969,487.209 353.969,474.536C353.969,464.048 357.64,455.581 364.985,449.14C372.338,442.674 381.826,439.452 393.456,439.452C405.468,439.452 416.387,442.67 426.222,449.04L421.233,460.156C412.821,456.581 404.518,454.794 396.328,454.794C389.694,454.794 384.571,456.389 381.01,459.591C377.419,462.78 375.205,466.86 375.205,471.866C375.205,479.516 380.679,486.171 390.782,491.783C399.973,496.772 418.563,507.364 418.563,507.364C428.645,514.517 433.68,522.138 433.68,534.71" style="fill:rgb(248,152,29);fill-rule:nonzero;"/>
            <path d="M653.088,397.834C640.574,397.516 630.886,398.776 622.754,402.216C620.406,403.154 616.673,403.154 616.346,406.121C617.614,407.376 617.761,409.402 618.862,411.135C620.736,414.261 624.005,418.467 626.989,420.66C630.266,423.171 633.556,425.657 637.004,427.846C643.085,431.609 649.978,433.797 655.904,437.547C659.357,439.728 662.789,442.549 666.246,444.896C667.945,446.148 669.033,448.178 671.239,448.96L671.239,448.483C670.134,447.077 669.82,445.043 668.736,443.478L664.04,438.949C659.504,432.856 653.866,427.536 647.785,423.167C642.78,419.718 631.831,415.031 629.802,409.264L629.483,408.946C632.924,408.624 637.004,407.376 640.273,406.418C645.592,405.016 650.443,405.334 655.9,403.932C658.411,403.304 660.902,402.517 663.421,401.743L663.421,400.333C660.592,397.516 658.575,393.775 655.599,391.113C647.639,384.237 638.867,377.511 629.802,371.882C624.947,368.747 618.702,366.73 613.534,364.064C611.671,363.122 608.533,362.658 607.436,361.093C604.632,357.652 603.054,353.124 601.02,349.052C596.5,340.46 592.11,330.926 588.209,321.84C585.389,315.746 583.673,309.661 580.232,304.024C564.119,277.448 546.621,261.351 519.727,245.552C513.948,242.263 507.071,240.861 499.726,239.137L487.995,238.517C485.493,237.421 482.986,234.445 480.801,233.039C471.878,227.414 448.906,215.223 442.343,231.319C438.116,241.493 448.596,251.495 452.195,256.656C454.853,260.238 458.297,264.315 460.156,268.383C461.256,271.04 461.566,273.861 462.667,276.669C465.169,283.55 467.509,291.204 470.798,297.624C472.514,300.897 474.385,304.337 476.578,307.301C477.834,309.033 480.018,309.799 480.496,312.624C478.315,315.738 478.143,320.438 476.892,324.347C471.267,342.012 473.464,363.897 481.437,376.879C483.932,380.788 489.883,389.393 497.843,386.095C504.891,383.282 503.33,374.372 505.355,366.558C505.82,364.671 505.514,363.432 506.452,362.193L506.452,362.499C508.632,366.872 510.834,371.087 512.855,375.473C517.706,383.127 526.152,391.104 533.187,396.407C536.933,399.236 539.9,404.074 544.591,405.803L544.591,405.334L544.282,405.334C543.332,403.932 541.942,403.304 540.695,402.216C537.874,399.399 534.752,395.959 532.563,392.837C526.009,384.078 520.209,374.38 515.061,364.374C512.541,359.519 510.369,354.212 508.339,349.366C507.394,347.495 507.394,344.674 505.824,343.732C503.472,347.168 500.044,350.144 498.329,354.354C495.353,361.088 495.043,369.371 493.938,377.984L493.323,378.285C488.343,377.034 486.61,371.882 484.718,367.508C480.035,356.401 479.248,338.572 483.312,325.757C484.4,322.48 489.109,312.159 487.229,309.037C486.288,306.045 483.157,304.342 481.441,301.985C479.424,299.022 477.214,295.272 475.808,291.983C472.058,283.232 470.171,273.535 466.132,264.788C464.244,260.711 460.968,256.493 458.314,252.738C455.334,248.52 452.057,245.548 449.701,240.547C448.923,238.827 447.83,236.014 449.082,234.144C449.387,232.888 450.023,232.419 451.27,232.106C453.296,230.394 459.084,232.57 461.114,233.512C466.91,235.855 471.757,238.044 476.595,241.325C478.784,242.895 481.132,245.866 483.94,246.649L487.229,246.649C492.222,247.737 497.851,246.95 502.551,248.365C510.834,251.027 518.338,254.931 525.068,259.146C545.546,272.133 562.433,290.585 573.833,312.624C575.704,316.215 576.499,319.504 578.207,323.25C581.5,330.917 585.573,338.735 588.841,346.239C592.127,353.584 595.257,361.084 599.949,367.186C602.288,370.467 611.688,372.187 615.903,373.908C619.021,375.31 623.875,376.557 626.688,378.277C632.007,381.554 637.306,385.316 642.307,388.92C644.797,390.795 652.623,394.704 653.088,397.834M493.608,261.967C491.449,261.944 489.297,262.209 487.209,262.754L487.209,263.067L487.51,263.067C488.77,265.566 490.958,267.299 492.52,269.479C493.779,271.986 494.872,274.472 496.106,276.975L496.408,276.665C498.613,275.104 499.71,272.601 499.71,268.847C498.76,267.742 498.613,266.662 497.822,265.566C496.901,264.001 494.872,263.222 493.608,261.967" style="fill:rgb(93,135,161);fill-rule:nonzero;"/>
            <path d="M667.979,570.556L671.218,570.556L671.218,554.703L666.359,554.703L662.396,565.521L658.089,554.703L653.41,554.703L653.41,570.556L656.469,570.556L656.469,558.495L656.641,558.495L661.153,570.556L663.484,570.556L667.979,558.495L667.979,570.556ZM641.884,570.556L645.312,570.556L645.312,557.39L649.798,557.39L649.798,554.699L637.209,554.699L637.209,557.39L641.876,557.39L641.884,570.556Z" style="fill:rgb(248,152,29);fill-rule:nonzero;"/>
        </g>
    </g>
</svg>
