<?xml version="1.0" encoding="UTF-8" standalone="no"?>
<!DOCTYPE svg PUBLIC "-//W3C//DTD SVG 1.1//EN" "http://www.w3.org/Graphics/SVG/1.1/DTD/svg11.dtd">
<svg width="100%" height="100%" viewBox="0 0 1940 1080" version="1.1" xmlns="http://www.w3.org/2000/svg" xmlns:xlink="http://www.w3.org/1999/xlink" xml:space="preserve" xmlns:serif="http://www.serif.com/" style="fill-rule:evenodd;clip-rule:evenodd;stroke-linecap:round;stroke-linejoin:round;">
    <g id="logo-phpmyadmin.svg" transform="matrix(0.498155,0,0,0.498155,968.911,540)">
        <g transform="matrix(1,0,0,1,-1945,-1084)">
            <g id="g5">
                <path id="path14" d="M2889.39,6.348L2887.35,2.278C2886.34,1.268 2885.32,0.238 2883.29,0.238L2879.21,1.268C2877.18,3.298 2876.16,4.318 2876.16,6.348L2789.64,1572.69L2802.88,1570.66L2886.34,46.958L2986.09,210.838L2985.07,210.838C3060.39,432.718 3091.94,668.858 3079.73,919.248L3085.84,928.408L3184.57,1103.47L3190.67,1109.58C3342.33,1242.91 3512.3,1332.49 3700.61,1378.29L3746.41,1452.59L3752.52,1454.62L3753.54,1452.59L2887.35,35.768L2889.39,6.248" style="fill:rgb(204,204,204);fill-rule:nonzero;"/>
                <path id="path18" d="M2858.86,559.028C2965.73,777.868 3004.4,1108.66 2975.91,1551.42L3392.2,1500.53L2858.86,559.028Z" style="fill:rgb(204,204,204);fill-rule:nonzero;"/>
                <path id="path20" d="M3807.48,1520.88C3850.22,1515.8 3877.7,1506.63 3889.92,1493.4L1711.76,1759.06L1710.74,1759.06C1711.76,1849.65 1752.47,1920.9 1831.86,1971.78C1853.23,1987.05 1875.63,1998.25 1895.98,2005.37C1915.32,1982.99 1936.7,1966.7 1962.15,1951.43L1963.16,1951.43C2191.16,1813.01 2530.1,1791.63 2977.94,1886.29L2983.03,1887.3C3031.89,1897.48 3080.74,1909.7 3126.55,1923.95C3139.77,1925.98 3150.97,1921.91 3160.13,1913.77C3176.42,1901.55 3196.78,1892.39 3224.26,1886.29L3224.26,1885.27C3296.53,1757.02 3394.23,1662.37 3516.38,1600.28C3600.86,1558.55 3698.57,1531.06 3807.48,1520.88" style="fill:rgb(204,204,204);fill-rule:nonzero;"/>
                <path id="path22" d="M2761.15,1560.59L2860.89,31.798C2716.36,589.568 2484.29,1110.7 2165.71,1594.17L2761.15,1560.59" style="fill:rgb(204,204,204);fill-rule:nonzero;"/>
                <path id="path24" d="M2200.32,329.008L2196.25,326.968L2192.18,327.988L2190.14,333.068L2107.7,1656.26L2119.91,1655.24L2202.36,333.068L2200.32,329.008" style="fill:rgb(204,204,204);fill-rule:nonzero;"/>
                <path id="path26" d="M2084.29,1627.76L2171.82,337.148L1710.74,1667.46L2084.29,1627.76" style="fill:rgb(204,204,204);fill-rule:nonzero;"/>
            </g>
            <g id="g13">
                <path id="path34" d="M2102.61,2057.95C1987.59,2112.91 1904.13,2122.07 1851.2,2088.49C1798.27,2052.87 1716.84,2061.01 1606.92,2112.91" style="fill:none;fill-rule:nonzero;stroke:rgb(204,204,204);stroke-width:12px;"/>
                <path id="path36" d="M2372.33,2066.09C2350.96,2058.97 2327.55,2053.88 2303.12,2051.84C2253.25,2047.78 2193.19,2067.11 2122.96,2108.85C2052.73,2151.59 1968.25,2167.88 1867.48,2158.72" style="fill:none;fill-rule:nonzero;stroke:rgb(204,204,204);stroke-width:12px;"/>
                <path id="path38" d="M3000.34,1962.27C2515.84,1862.53 2166.73,1885.94 1952.99,2033.52" style="fill:none;fill-rule:nonzero;stroke:rgb(204,204,204);stroke-width:12px;"/>
                <path id="path40" d="M3305.69,2010.12C3284.31,2001.97 3260.9,1996.88 3236.47,1995.86C3186.6,1991.8 3126.55,2011.13 3056.32,2052.87C2986.09,2094.59 2901.61,2110.88 2800.84,2102.74" style="fill:none;fill-rule:nonzero;stroke:rgb(204,204,204);stroke-width:12px;"/>
                <path id="path42" d="M2655.29,341.218C2605.41,310.678 2553.51,318.828 2499.56,366.658C2452.74,318.828 2403.89,310.678 2352.99,341.218" style="fill:none;fill-rule:nonzero;stroke:rgb(204,204,204);stroke-width:29px;"/>
                <path id="path44" d="M2542.31,170.218C2491.42,139.688 2441.55,151.898 2390.65,206.858C2340.77,151.898 2289.89,139.688 2238.99,170.218" style="fill:none;fill-rule:nonzero;stroke:rgb(204,204,204);stroke-width:29px;"/>
            </g>
            <g id="g33">
                <path id="path66" d="M56.77,1763.86L191.685,1763.86C232.223,1763.86 261.99,1775.4 280.988,1798.48C299.979,1821.56 306.141,1853.72 299.473,1894.96C296.739,1911.88 291.861,1927.41 284.836,1941.56C277.808,1955.7 268.527,1968.62 256.99,1980.31C243.272,1994.38 227.916,2004.46 210.912,2010.54C193.909,2016.63 172.163,2019.67 145.682,2019.67L85.588,2019.67L70.637,2112.18L0.472,2112.18L56.77,1763.86ZM118.023,1818.97L94.41,1965.07L137.085,1965.07C165.372,1965.07 186.337,1959.29 199.986,1947.73C213.624,1936.16 222.62,1916.92 226.974,1890C231.171,1864.03 228.731,1845.7 219.675,1835C210.611,1824.31 192.754,1818.97 166.097,1818.97L118.023,1818.97" style="fill:rgb(108,120,175);fill-rule:nonzero;"/>
                <path id="path68" d="M378.242,1671.35L447.877,1671.35L432.925,1763.86L494.875,1763.86C533.865,1763.86 560.887,1771.25 575.951,1786.02C591.02,1800.79 595.903,1824.6 590.594,1857.45L564.373,2019.67L493.684,2019.67L518.637,1865.28C521.479,1847.73 520.102,1835.79 514.513,1829.46C508.924,1823.14 497.229,1819.98 479.444,1819.98L423.865,1819.98L391.591,2019.67L321.944,2019.67L378.242,1671.35" style="fill:rgb(108,120,175);fill-rule:nonzero;"/>
                <path id="path70" d="M666.438,1763.86L801.351,1763.86C841.898,1763.86 871.656,1775.4 890.654,1798.48C909.649,1821.56 915.808,1853.72 909.144,1894.96C906.41,1911.88 901.528,1927.41 894.511,1941.56C887.478,1955.7 878.189,1968.62 866.66,1980.31C852.938,1994.38 837.584,2004.46 820.579,2010.54C803.579,2016.63 781.835,2019.67 755.344,2019.67L695.26,2019.67L680.308,2112.18L610.147,2112.18L666.438,1763.86ZM727.698,1818.97L704.085,1965.07L746.76,1965.07C775.047,1965.07 796.008,1959.29 809.649,1947.73C823.29,1936.16 832.291,1916.92 836.645,1890C840.839,1864.03 838.402,1845.7 829.341,1835C820.278,1824.31 802.42,1818.97 775.773,1818.97L727.698,1818.97" style="fill:rgb(108,120,175);fill-rule:nonzero;"/>
            </g>
            <g id="g65">
                <path id="path72" d="M1027.75,1597.32L1162.7,1597.32L1221.98,1921.19L1385.95,1597.32L1520.38,1597.32L1452.18,2019.38L1362.09,2019.38L1422.65,1690.63L1257.31,2019.38L1159.68,2019.38L1097.59,1687.19L1053.12,2019.38L959.537,2019.38L1027.75,1597.32" style="fill:rgb(248,156,14);fill-rule:nonzero;"/>
                <path id="path74" d="M1682.34,1951.08L1750.46,1951.08L1789.51,1709.42L1874.2,1709.42L1825.46,2011.06C1818.84,2052.07 1804.02,2082.44 1781.01,2102.18C1758,2121.91 1726.08,2131.78 1685.26,2131.78L1519.18,2131.78L1529.33,2069L1680.83,2069C1697.09,2069 1710.19,2065.2 1720.15,2057.61C1730.1,2050 1736.25,2039 1738.58,2024.57L1739.42,2019.38L1664.46,2019.38C1616.51,2019.38 1583.8,2010.24 1566.36,1991.96C1548.91,1973.68 1543.65,1943.19 1550.53,1900.5L1581.42,1709.42L1665.16,1709.42L1635.3,1894.19C1631.52,1917.56 1632.66,1932.88 1638.73,1940.16C1644.8,1947.44 1659.33,1951.08 1682.34,1951.08" style="fill:rgb(248,156,14);fill-rule:nonzero;"/>
                <path id="path76" d="M2102.3,1597.32L2199.82,1597.32L2318.01,2019.38L2215.74,2019.38L2191.83,1918.92L2001.88,1918.92L1946.69,2019.38L1849.16,2019.38L2102.3,1597.32ZM2133.95,1681.13L2043.77,1843.57L2173.99,1843.57L2133.95,1681.13" style="fill:rgb(248,156,14);fill-rule:nonzero;"/>
                <path id="path78" d="M2637.3,2019.38L2474.61,2019.38C2425.44,2019.38 2389.34,2005.4 2366.29,1977.44C2343.25,1949.48 2335.78,1910.51 2343.86,1860.53C2347.17,1840.03 2353.09,1821.22 2361.61,1804.08C2370.13,1786.94 2381.38,1771.28 2395.37,1757.11C2411.99,1740.07 2430.68,1727.86 2451.4,1720.48C2472.12,1713.11 2498.44,1709.42 2530.36,1709.42L2603.02,1709.42L2621.13,1597.32L2705.52,1597.32L2637.3,2019.38ZM2563.67,1952.92L2592.24,1776.19L2541.01,1776.19C2506.66,1776.19 2481.17,1783.14 2464.53,1797.02C2447.9,1810.92 2436.95,1834.05 2431.72,1866.42C2426.64,1897.84 2429.65,1920.11 2440.73,1933.23C2451.81,1946.36 2473.43,1952.92 2505.6,1952.92L2563.66,1952.92" style="fill:rgb(248,156,14);fill-rule:nonzero;"/>
                <path id="path80" d="M2761.02,1709.42L3086.26,1709.42C3133.41,1709.42 3165.96,1718.33 3183.88,1736.12C3201.8,1753.92 3207.53,1782.83 3201.07,1822.82L3169.3,2019.38L3083.97,2019.38L3114.01,1833.45C3117.7,1810.66 3116.57,1795.62 3110.63,1788.34C3104.66,1781.06 3090.61,1777.42 3068.45,1777.42L3020.94,1777.42L2981.83,2019.38L2895.23,2019.38L2934.34,1777.42L2835.36,1777.42L2796.25,2019.38L2710.92,2019.38L2761.02,1709.42" style="fill:rgb(248,156,14);fill-rule:nonzero;"/>
                <path id="path82" d="M3389.65,1674.2L3300.83,1674.2L3313.25,1597.32L3402.07,1597.32L3389.65,1674.2ZM3333.86,2019.38L3245.04,2019.38L3295.13,1709.42L3383.95,1709.42L3333.86,2019.38" style="fill:rgb(248,156,14);fill-rule:nonzero;"/>
                <path id="path84" d="M3457.21,1709.42L3616.56,1709.42C3664.72,1709.42 3697.7,1718.19 3715.47,1735.69C3733.25,1753.21 3738.87,1782.25 3732.31,1822.82L3700.55,2019.38L3615.85,2019.38L3646,1832.88C3649.74,1809.7 3648.45,1794.66 3642.12,1787.77C3635.8,1780.87 3621.43,1777.42 3599.04,1777.42L3530.92,1777.42L3491.81,2019.38L3407.12,2019.38L3457.21,1709.42" style="fill:rgb(248,156,14);fill-rule:nonzero;"/>
            </g>
        </g>
    </g>
</svg>
