<?xml version="1.0" encoding="UTF-8" standalone="no"?><!DOCTYPE svg PUBLIC "-//W3C//DTD SVG 1.1//EN" "http://www.w3.org/Graphics/SVG/1.1/DTD/svg11.dtd"><svg width="100%" height="100%" viewBox="0 0 209 209" version="1.1" xmlns="http://www.w3.org/2000/svg" xmlns:xlink="http://www.w3.org/1999/xlink" xml:space="preserve" xmlns:serif="http://www.serif.com/" style="fill-rule:evenodd;clip-rule:evenodd;stroke-linejoin:round;stroke-miterlimit:2;"><circle cx="104.167" cy="104.167" r="104.167" style="fill:#7a154b;"/><g><path d="M177.083,104.167c0,5.749 -4.667,10.416 -10.416,10.416l-125,0c-5.749,0 -10.417,-4.667 -10.417,-10.416c0,-5.749 4.668,-10.417 10.417,-10.417l125,0c5.749,0 10.416,4.668 10.416,10.417Z" style="fill:#181b1e;"/><path d="M78.493,67.34c4.065,4.065 4.065,10.666 0,14.732l-29.463,29.462c-4.065,4.066 -10.666,4.066 -14.731,0c-4.065,-4.065 -4.065,-10.666 -0,-14.731l29.463,-29.463c4.065,-4.065 10.666,-4.065 14.731,0Z" style="fill:#181b1e;"/><path d="M78.493,140.993c-4.065,4.065 -10.666,4.065 -14.731,0l-29.463,-29.463c-4.065,-4.065 -4.065,-10.666 -0,-14.731c4.065,-4.065 10.666,-4.065 14.731,-0l29.463,29.463c4.065,4.065 4.065,10.666 0,14.731Z" style="fill:#181b1e;"/></g></svg>